<svg width="49" height="49" xmlns="http://www.w3.org/2000/svg" xmlns:xlink="http://www.w3.org/1999/xlink" xml:space="preserve" overflow="hidden"><defs><clipPath id="clip0"><rect x="119" y="149" width="49" height="49"/></clipPath></defs><g clip-path="url(#clip0)" transform="translate(-119 -149)"><path d="M142.862 158.917C142.65 158.917 142.44 158.917 142.235 158.909 134.296 159.07 127.99 165.635 128.148 173.575 128.15 175.127 128.391 176.67 128.862 178.15 129.318 179.516 130.004 180.795 130.889 181.931 127.206 186.123 126.329 188.968 126.152 190.383 126.117 190.662 126.315 190.917 126.595 190.952 126.615 190.955 126.636 190.956 126.656 190.956 126.913 190.956 127.13 190.764 127.162 190.509 127.292 189.47 127.998 186.845 131.527 182.774L131.672 182.965C133.624 185.609 136.49 187.434 139.713 188.085 140.533 188.237 141.366 188.314 142.2 188.314L142.286 188.314C144.733 188.314 147.133 187.645 149.227 186.379 160.008 180.135 161.365 168.643 161.365 155.738 161.365 155.738 150.276 158.917 142.862 158.917ZM148.701 185.506C146.765 186.675 144.547 187.292 142.286 187.292L142.2 187.292C141.428 187.292 140.658 187.221 139.899 187.08 136.925 186.479 134.281 184.791 132.485 182.346L132.218 181.995C135.055 178.896 139.468 175.031 146.335 170.454 146.57 170.297 146.633 169.98 146.477 169.746 146.32 169.511 146.003 169.448 145.769 169.605 138.967 174.139 134.508 177.998 131.588 181.156 130.826 180.153 130.233 179.033 129.833 177.839 129.392 176.452 129.169 175.006 129.17 173.551 129.031 166.187 134.872 160.096 142.236 159.927 142.44 159.932 142.653 159.935 142.866 159.935 148.907 159.935 157.161 157.915 160.341 157.073 160.213 170.579 158.092 180.068 148.701 185.506Z" stroke="#117865" stroke-width="0.510468"/></g></svg>