<svg width="96" height="96" xmlns="http://www.w3.org/2000/svg" xmlns:xlink="http://www.w3.org/1999/xlink" xml:space="preserve" overflow="hidden"><defs><clipPath id="clip0"><rect x="0" y="0" width="96" height="96"/></clipPath></defs><g clip-path="url(#clip0)"><path d="M84.9 46.282C83.5055 27.4563 68.536 12.4902 49.71 11.1 39.1769 10.3109 28.7965 13.9809 21.1 21.215 5.74885 35.5011 4.88547 59.5269 19.1716 74.8781 21.6226 77.5118 24.4356 79.7839 27.526 81.626 33.3833 85.1253 40.9682 83.2138 44.4675 77.3565 45.612 75.4407 46.2163 73.2506 46.216 71.019 46.216 67.089 46.36 65.095 47.072 63.213 51.7212 62.9168 55.898 60.2692 58.15 56.191L58.15 56.191C64.111 45.778 59.65 35.939 53.387 25.664 53.387 25.664 45.302 34.28 39.033 37.846 32.5702 41.7807 30.5208 50.2094 34.4555 56.6722 34.4566 56.6741 34.4578 56.6761 34.459 56.678 35.5069 58.3887 36.9212 59.8457 38.6 60.944 39.9325 55.1961 41.9356 49.6246 44.568 44.344 44.8961 43.7365 45.6545 43.5099 46.262 43.838 46.8695 44.1661 47.0961 44.9245 46.768 45.532 46.749 45.567 45.906 47.15 44.774 49.924 43.1344 54.3238 41.8461 58.8466 40.921 63.45 40.921 63.462 40.78 64.239 40.721 64.606L40.721 64.606C40.4609 66.1097 40.3387 67.6341 40.356 69.16L40.356 69.16C40.356 73.498 39.015 75.402 36.995 76.547 35.014 77.6889 32.5683 77.6609 30.614 76.474 15.4449 67.4389 10.4723 47.8175 19.5074 32.6485 21.0607 30.0406 22.9775 27.6673 25.2 25.6 31.6832 19.5062 40.4273 16.4146 49.3 17.079 66.9097 18.3253 80.175 33.6111 78.9287 51.2208 78.6761 54.7899 77.8261 58.2913 76.414 61.579 71.9585 58.9507 66.2894 59.6688 62.63 63.325L57.27 68.677 59.946 71.353 55.665 75.634C54.7965 76.5389 54.8261 77.9765 55.731 78.845 56.6098 79.6883 57.9973 79.6883 58.876 78.845L63.157 74.564 67.438 78.845 63.157 83.126C62.2703 84.0124 62.2701 85.4498 63.1565 86.3365 64.0429 87.2232 65.4803 87.2234 66.367 86.337L70.649 82.056 73.324 84.732 78.676 79.38C82.119 75.934 82.9786 70.6749 80.812 66.312 83.9793 60.1343 85.3931 53.2068 84.9 46.282Z" fill="#FFFFFF"/></g></svg>