<svg width="96" height="96" xmlns="http://www.w3.org/2000/svg" xmlns:xlink="http://www.w3.org/1999/xlink" xml:space="preserve" overflow="hidden"><defs><clipPath id="clip0"><rect x="0" y="0" width="96" height="96"/></clipPath></defs><g clip-path="url(#clip0)"><path d="M86 71 83 74 14 74 10 70 10 50 14 46 83 46 86 49 86 71ZM4 40 4 80 92 80 92 40 4 40Z" fill="#FFFFFF"/><path d="M56 60C56 65.5229 52.4183 70 48 70 43.5817 70 40 65.5229 40 60 40 54.4772 43.5817 50 48 50 52.4183 50 56 54.4772 56 60Z" fill="#FFFFFF"/><path d="M26 60C26 61.6569 24.6569 63 23 63 21.3431 63 20 61.6569 20 60 20 58.3431 21.3431 57 23 57 24.6569 57 26 58.3431 26 60Z" fill="#FFFFFF"/><path d="M76 60C76 61.6569 74.6569 63 73 63 71.3431 63 70 61.6569 70 60 70 58.3431 71.3431 57 73 57 74.6569 57 76 58.3431 76 60Z" fill="#FFFFFF"/><path d="M65.9 20.7 67.4 24.5 73.4 23.3 69.2 12.8 15.4 34.8 46.2 28.7Z" fill="#FFFFFF"/><path d="M60.7 36 76.5 32.9 77.2 36 83.3 36 81.3 25.8 30 36Z" fill="#FFFFFF"/></g></svg>